<svg xmlns="http://www.w3.org/2000/svg" viewBox="0 0 1600 900" role="img" aria-labelledby="title desc">
  <title id="title">Communautés et talents</title>
  <desc id="desc">Illustration institutionnelle de profils, réseaux et collaboration autour des talents numériques.</desc>
  <defs>
    <linearGradient id="bg" x1="0" x2="1" y1="0" y2="1">
      <stop offset="0%" stop-color="#f6d938"/>
      <stop offset="100%" stop-color="#f1a827"/>
    </linearGradient>
  </defs>
  <rect width="1600" height="900" rx="48" fill="url(#bg)"/>
  <circle cx="1320" cy="170" r="150" fill="#ffffff" opacity="0.18"/>
  <rect x="120" y="160" width="1360" height="560" rx="42" fill="#fff8df" opacity="0.92"/>
  <circle cx="390" cy="370" r="96" fill="#005ca9"/>
  <circle cx="800" cy="330" r="112" fill="#d91d38"/>
  <circle cx="1170" cy="390" r="90" fill="#08345f"/>
  <rect x="280" y="510" width="220" height="24" rx="12" fill="#005ca9" opacity="0.8"/>
  <rect x="680" y="500" width="250" height="24" rx="12" fill="#d91d38" opacity="0.78"/>
  <rect x="1060" y="520" width="220" height="24" rx="12" fill="#08345f" opacity="0.78"/>
  <path d="M486 370 C586 290, 674 284, 688 320" fill="none" stroke="#08345f" stroke-width="16" stroke-linecap="round"/>
  <path d="M912 334 C1000 320, 1060 334, 1080 372" fill="none" stroke="#005ca9" stroke-width="16" stroke-linecap="round"/>
  <path d="M480 626 C760 540, 1040 560, 1270 642" fill="none" stroke="#ffffff" stroke-width="22" stroke-linecap="round" opacity="0.78"/>
  <text x="150" y="800" fill="#08345f" font-size="62" font-family="Arial, sans-serif" font-weight="700">Talents &amp; Communautes</text>
</svg>
