<svg xmlns="http://www.w3.org/2000/svg" viewBox="0 0 1600 900" role="img" aria-labelledby="title desc">
  <title id="title">Programme de visibilité</title>
  <desc id="desc">Illustration représentant une scène de mise en visibilité de projets et d'entreprises innovantes.</desc>
  <defs><linearGradient id="bg" x1="0" x2="1" y1="0" y2="1"><stop offset="0%" stop-color="#f6d938"/><stop offset="100%" stop-color="#f29f1f"/></linearGradient></defs>
  <rect width="1600" height="900" rx="48" fill="url(#bg)"/>
  <rect x="180" y="150" width="1240" height="600" rx="40" fill="#fff8df" opacity="0.94"/>
  <rect x="280" y="250" width="300" height="360" rx="32" fill="#ffffff"/>
  <rect x="650" y="210" width="660" height="140" rx="30" fill="#08345f"/>
  <rect x="650" y="400" width="660" height="240" rx="30" fill="#ffffff"/>
  <circle cx="430" cy="360" r="70" fill="#d91d38"/>
  <rect x="340" y="480" width="180" height="20" rx="10" fill="#e6eef8"/>
  <rect x="730" y="255" width="240" height="20" rx="10" fill="#ffffff" opacity="0.9"/>
  <rect x="730" y="300" width="430" height="16" rx="8" fill="#ffffff" opacity="0.55"/>
  <rect x="730" y="460" width="360" height="20" rx="10" fill="#08345f" opacity="0.9"/>
  <rect x="730" y="505" width="460" height="16" rx="8" fill="#a4bad0"/>
  <rect x="730" y="545" width="420" height="16" rx="8" fill="#a4bad0"/>
  <text x="200" y="810" fill="#08345f" font-size="58" font-family="Arial, sans-serif" font-weight="700">Programme de Visibilite</text>
</svg>
