<svg xmlns="http://www.w3.org/2000/svg" viewBox="0 0 1600 900" role="img" aria-labelledby="title desc">
  <title id="title">Ecosystem illustration</title>
  <desc id="desc">Abstract institutional illustration showing connected stakeholders, digital networks and strategic coordination.</desc>
  <defs>
    <linearGradient id="bg" x1="0" y1="0" x2="1" y2="1">
      <stop offset="0%" stop-color="#0b4271"/>
      <stop offset="55%" stop-color="#005ca9"/>
      <stop offset="100%" stop-color="#08345f"/>
    </linearGradient>
    <linearGradient id="card" x1="0" y1="0" x2="1" y2="1">
      <stop offset="0%" stop-color="#ffffff" stop-opacity="0.94"/>
      <stop offset="100%" stop-color="#e9f4ff" stop-opacity="0.84"/>
    </linearGradient>
    <linearGradient id="halo" x1="0" y1="0" x2="1" y2="1">
      <stop offset="0%" stop-color="#f6d938" stop-opacity="0.9"/>
      <stop offset="100%" stop-color="#d91d38" stop-opacity="0.78"/>
    </linearGradient>
    <filter id="softShadow" x="-20%" y="-20%" width="140%" height="140%">
      <feDropShadow dx="0" dy="24" stdDeviation="24" flood-color="#082f55" flood-opacity="0.22"/>
    </filter>
  </defs>

  <rect width="1600" height="900" rx="52" fill="url(#bg)"/>
  <circle cx="1330" cy="110" r="180" fill="#ffffff" opacity="0.08"/>
  <circle cx="210" cy="760" r="180" fill="#f6d938" opacity="0.12"/>
  <circle cx="1190" cy="720" r="230" fill="#d91d38" opacity="0.1"/>
  <path d="M0 700C210 620 355 600 550 650c170 44 286 114 478 92 190-22 328-118 572-77v235H0Z" fill="#ffffff" opacity="0.06"/>

  <g filter="url(#softShadow)">
    <rect x="108" y="118" width="1384" height="664" rx="44" fill="#ffffff" opacity="0.1"/>
  </g>

  <g opacity="0.82">
    <path d="M372 256C468 200 597 190 698 240" fill="none" stroke="#f6d938" stroke-width="10" stroke-linecap="round" opacity="0.8"/>
    <path d="M878 262C978 218 1104 226 1206 302" fill="none" stroke="#ffffff" stroke-width="10" stroke-linecap="round" opacity="0.5"/>
    <path d="M426 620C596 502 808 468 1000 542" fill="none" stroke="#ffffff" stroke-width="12" stroke-linecap="round" opacity="0.34"/>
    <path d="M980 540C1088 530 1204 572 1270 650" fill="none" stroke="#f6d938" stroke-width="10" stroke-linecap="round" opacity="0.74"/>
  </g>

  <g>
    <circle cx="800" cy="438" r="174" fill="url(#halo)" opacity="0.2"/>
    <circle cx="800" cy="438" r="132" fill="#ffffff" opacity="0.12"/>
    <circle cx="800" cy="438" r="92" fill="#08345f"/>
    <circle cx="800" cy="438" r="64" fill="#ffffff" opacity="0.14"/>
    <circle cx="800" cy="438" r="10" fill="#f6d938"/>
    <path d="M800 394c22 0 40 18 40 40s-18 40-40 40-40-18-40-40 18-40 40-40Z" fill="#ffffff" opacity="0.94"/>
    <path d="M748 530c20-34 52-52 96-52s76 18 96 52" fill="none" stroke="#ffffff" stroke-width="24" stroke-linecap="round" opacity="0.9"/>
  </g>

  <g stroke-linecap="round" stroke="#ffffff" stroke-width="8" opacity="0.56">
    <line x1="800" y1="438" x2="512" y2="296"/>
    <line x1="800" y1="438" x2="1118" y2="320"/>
    <line x1="800" y1="438" x2="502" y2="624"/>
    <line x1="800" y1="438" x2="1142" y2="610"/>
  </g>

  <g filter="url(#softShadow)">
    <rect x="360" y="212" width="220" height="170" rx="30" fill="url(#card)"/>
    <circle cx="470" cy="268" r="28" fill="#005ca9"/>
    <rect x="418" y="314" width="104" height="18" rx="9" fill="#08345f" opacity="0.9"/>
    <rect x="396" y="346" width="148" height="14" rx="7" fill="#08345f" opacity="0.24"/>
    <rect x="396" y="370" width="120" height="14" rx="7" fill="#08345f" opacity="0.18"/>
  </g>

  <g filter="url(#softShadow)">
    <rect x="1020" y="220" width="250" height="182" rx="30" fill="url(#card)"/>
    <rect x="1064" y="268" width="118" height="18" rx="9" fill="#d91d38" opacity="0.9"/>
    <rect x="1064" y="306" width="162" height="14" rx="7" fill="#08345f" opacity="0.2"/>
    <rect x="1064" y="332" width="140" height="14" rx="7" fill="#08345f" opacity="0.16"/>
    <circle cx="1212" cy="292" r="34" fill="#f6d938" opacity="0.88"/>
    <path d="M1192 292h40M1212 272v40" stroke="#08345f" stroke-width="10" stroke-linecap="round"/>
  </g>

  <g filter="url(#softShadow)">
    <rect x="342" y="548" width="248" height="168" rx="30" fill="url(#card)"/>
    <path d="M404 634c22-44 56-66 102-66s80 22 102 66" fill="none" stroke="#005ca9" stroke-width="16" stroke-linecap="round"/>
    <circle cx="506" cy="590" r="34" fill="#f6d938"/>
    <circle cx="456" cy="616" r="16" fill="#d91d38" opacity="0.9"/>
    <circle cx="556" cy="616" r="16" fill="#005ca9" opacity="0.9"/>
  </g>

  <g filter="url(#softShadow)">
    <rect x="1000" y="520" width="284" height="190" rx="30" fill="url(#card)"/>
    <circle cx="1064" cy="584" r="20" fill="#005ca9"/>
    <circle cx="1126" cy="584" r="20" fill="#f6d938"/>
    <circle cx="1188" cy="584" r="20" fill="#d91d38"/>
    <path d="M1064 584h124" fill="none" stroke="#08345f" stroke-width="8" stroke-linecap="round" opacity="0.34"/>
    <rect x="1048" y="630" width="186" height="16" rx="8" fill="#08345f" opacity="0.18"/>
    <rect x="1048" y="658" width="142" height="16" rx="8" fill="#08345f" opacity="0.12"/>
  </g>

  <g>
    <circle cx="512" cy="296" r="16" fill="#f6d938"/>
    <circle cx="1118" cy="320" r="16" fill="#ffffff"/>
    <circle cx="502" cy="624" r="16" fill="#d91d38"/>
    <circle cx="1142" cy="610" r="16" fill="#f6d938"/>
  </g>
</svg>